<mxfile host="app.diagrams.net" modified="2024-04-24T16:40:00.000Z" agent="Mozilla/5.0" version="21.7.5" etag="algorithms-overview-etag" type="device">
  <diagram id="algorithms-overview" name="Обзор алгоритмов">
    <mxGraphModel dx="1200" dy="800" grid="1" gridSize="10" guides="1" tooltips="1" connect="1" arrows="1" fold="1" page="1" pageScale="1" pageWidth="827" pageHeight="1169" math="0" shadow="0">
      <root>
        <mxCell id="0"/>
        <mxCell id="1" parent="0"/>
        
        <!-- Поиск по координатам -->
        <mxCell id="search_coords" value="Поиск по координатам (Redis/PostGIS)" style="rounded=1;whiteSpace=wrap;html=1;fillColor=#E3F2FD;strokeColor=#1976D2;" vertex="1" parent="1">
          <mxGeometry x="40" y="40" width="260" height="60" as="geometry"/>
        </mxCell>
        <mxCell id="search_coords_desc" value="GEOADD, GEORADIUS, ST_DWithin, ST_Distance" style="text;strokeColor=none;fillColor=none;align=left;verticalAlign=top;spacingLeft=8;spacingTop=4;" vertex="1" parent="search_coords">
          <mxGeometry y="40" width="260" height="20" as="geometry"/>
        </mxCell>

        <!-- Построение маршрута -->
        <mxCell id="route_building" value="Построение маршрута по полигону" style="rounded=1;whiteSpace=wrap;html=1;fillColor=#FFF3E0;strokeColor=#F57C00;" vertex="1" parent="1">
          <mxGeometry x="360" y="40" width="260" height="60" as="geometry"/>
        </mxCell>
        <mxCell id="route_building_desc" value="Turf.js, PostGIS, эвристика, сортировка точек" style="text;strokeColor=none;fillColor=none;align=left;verticalAlign=top;spacingLeft=8;spacingTop=4;" vertex="1" parent="route_building">
          <mxGeometry y="40" width="260" height="20" as="geometry"/>
        </mxCell>

        <!-- Кластеризация -->
        <mxCell id="clustering" value="Кластеризация объектов" style="rounded=1;whiteSpace=wrap;html=1;fillColor=#E8F5E9;strokeColor=#388E3C;" vertex="1" parent="1">
          <mxGeometry x="40" y="160" width="260" height="60" as="geometry"/>
        </mxCell>
        <mxCell id="clustering_desc" value="Grid-based, DBSCAN, пересчет при изменении масштаба" style="text;strokeColor=none;fillColor=none;align=left;verticalAlign=top;spacingLeft=8;spacingTop=4;" vertex="1" parent="clustering">
          <mxGeometry y="40" width="260" height="20" as="geometry"/>
        </mxCell>

        <!-- Синхронизация и кэш -->
        <mxCell id="sync_cache" value="Синхронизация и кэширование (Kafka, Redis)" style="rounded=1;whiteSpace=wrap;html=1;fillColor=#FCE4EC;strokeColor=#C2185B;" vertex="1" parent="1">
          <mxGeometry x="360" y="160" width="260" height="60" as="geometry"/>
        </mxCell>
        <mxCell id="sync_cache_desc" value="PostgreSQL → Kafka → Redis, быстрый доступ, консистентность" style="text;strokeColor=none;fillColor=none;align=left;verticalAlign=top;spacingLeft=8;spacingTop=4;" vertex="1" parent="sync_cache">
          <mxGeometry y="40" width="260" height="20" as="geometry"/>
        </mxCell>

        <!-- Стрелки -->
        <mxCell id="arrow1" style="edgeStyle=orthogonalEdgeStyle;endArrow=block;endFill=1;strokeColor=#1976D2;" edge="1" parent="1" source="search_coords" target="route_building">
          <mxGeometry relative="1" as="geometry"/>
        </mxCell>
        <mxCell id="arrow2" style="edgeStyle=orthogonalEdgeStyle;endArrow=block;endFill=1;strokeColor=#388E3C;" edge="1" parent="1" source="clustering" target="sync_cache">
          <mxGeometry relative="1" as="geometry"/>
        </mxCell>
      </root>
    </mxGraphModel>
  </diagram>
</mxfile> 